<?xml version="1.0" encoding="UTF-8"?>
<svg width="1320" height="880" viewBox="0 0 1320 880" fill="none" xmlns="http://www.w3.org/2000/svg">
  <defs>
    <linearGradient id="paperGradient" x1="0" y1="0" x2="0" y2="1">
      <stop offset="0%" stop-color="#ffffff"/>
      <stop offset="100%" stop-color="#fbfdff"/>
    </linearGradient>
    <linearGradient id="accent" x1="0" y1="0" x2="1" y2="0">
      <stop offset="0%" stop-color="#1e3a8a"/>
      <stop offset="100%" stop-color="#3b82f6"/>
    </linearGradient>
  </defs>

  <!-- Canvas background -->
  <rect width="1320" height="880" fill="#f3f6fb"/>

  <!-- Resume sheet -->
  <rect x="110" y="40" width="1100" height="800" rx="18" fill="url(#paperGradient)" stroke="#e5e7eb" stroke-width="2"/>

  <!-- Header -->
  <rect x="110" y="40" width="1100" height="140" rx="18" fill="#f8fafc"/>
  <circle cx="220" cy="110" r="46" fill="#e2e8f0" stroke="#cbd5e1"/>
  <rect x="290" y="78" width="360" height="28" rx="6" fill="#0f172a" opacity="0.85"/>
  <rect x="290" y="116" width="280" height="18" rx="5" fill="#64748b" opacity="0.9"/>

  <!-- Sidebar -->
  <rect x="110" y="200" width="320" height="20" rx="6" fill="#0f172a" opacity="0.9"/>
  <rect x="110" y="230" width="320" height="2" fill="#e5e7eb"/>
  <!-- Contact items -->
  <g fill="#94a3b8">
    <rect x="110" y="252" width="280" height="12" rx="4"/>
    <rect x="110" y="272" width="260" height="12" rx="4"/>
    <rect x="110" y="292" width="240" height="12" rx="4"/>
  </g>

  <!-- Skills section in sidebar -->
  <rect x="110" y="330" width="220" height="16" rx="4" fill="#0f172a" opacity="0.9"/>
  <g fill="#cbd5e1">
    <rect x="110" y="360" width="300" height="10" rx="4"/>
    <rect x="110" y="380" width="300" height="10" rx="4"/>
    <rect x="110" y="400" width="300" height="10" rx="4"/>
    <rect x="110" y="420" width="280" height="10" rx="4"/>
  </g>

  <!-- Main Column Sections -->
  <!-- Summary -->
  <rect x="460" y="200" width="180" height="16" rx="4" fill="#0f172a" opacity="0.9"/>
  <rect x="460" y="228" width="680" height="10" rx="4" fill="#cbd5e1"/>
  <rect x="460" y="248" width="620" height="10" rx="4" fill="#e2e8f0"/>
  <rect x="460" y="268" width="660" height="10" rx="4" fill="#e2e8f0"/>

  <!-- Experience section -->
  <rect x="460" y="316" width="220" height="16" rx="4" fill="#0f172a" opacity="0.9"/>
  <!-- Job 1 header -->
  <rect x="460" y="346" width="360" height="12" rx="4" fill="#0f172a" opacity="0.85"/>
  <rect x="950" y="346" width="190" height="12" rx="4" fill="#64748b"/>
  <rect x="460" y="366" width="560" height="10" rx="4" fill="#94a3b8"/>
  <!-- Job 1 bullets -->
  <g fill="#e2e8f0">
    <rect x="460" y="388" width="660" height="10" rx="4"/>
    <rect x="460" y="408" width="640" height="10" rx="4"/>
    <rect x="460" y="428" width="600" height="10" rx="4"/>
  </g>
  <!-- Job 2 header -->
  <rect x="460" y="470" width="330" height="12" rx="4" fill="#0f172a" opacity="0.85"/>
  <rect x="950" y="470" width="190" height="12" rx="4" fill="#64748b"/>
  <rect x="460" y="490" width="560" height="10" rx="4" fill="#94a3b8"/>
  <!-- Job 2 bullets -->
  <g fill="#e2e8f0">
    <rect x="460" y="512" width="660" height="10" rx="4"/>
    <rect x="460" y="532" width="620" height="10" rx="4"/>
    <rect x="460" y="552" width="640" height="10" rx="4"/>
  </g>

  <!-- Education -->
  <rect x="460" y="596" width="200" height="16" rx="4" fill="#0f172a" opacity="0.9"/>
  <rect x="460" y="626" width="420" height="12" rx="4" fill="#0f172a" opacity="0.85"/>
  <rect x="460" y="646" width="520" height="10" rx="4" fill="#94a3b8"/>
  <rect x="460" y="666" width="600" height="10" rx="4" fill="#e2e8f0"/>

  <!-- Accent divider -->
  <rect x="110" y="180" width="1100" height="4" rx="2" fill="url(#accent)" opacity="0.35"/>
</svg>
